<svg xmlns="http://www.w3.org/2000/svg" xmlns:xlink="http://www.w3.org/1999/xlink" width="1080" zoomAndPan="magnify" viewBox="0 0 810 809.999993" height="1080" preserveAspectRatio="xMidYMid meet" version="1.0"><defs><g/><clipPath id="c3e2b8f63d"><path d="M 268 285.621094 L 381 285.621094 L 381 350 L 268 350 Z M 268 285.621094 " clip-rule="nonzero"/></clipPath><clipPath id="9a5ee9bd20"><path d="M 268 302 L 602.453125 302 L 602.453125 473.871094 L 268 473.871094 Z M 268 302 " clip-rule="nonzero"/></clipPath><clipPath id="f142b891a6"><path d="M 178.703125 285.621094 L 292 285.621094 L 292 473.871094 L 178.703125 473.871094 Z M 178.703125 285.621094 " clip-rule="nonzero"/></clipPath></defs><rect x="-81" width="972" fill="#ffffff" y="-80.999999" height="971.999992" fill-opacity="1"/><rect x="-81" width="972" fill="#ffffff" y="-80.999999" height="971.999992" fill-opacity="1"/><g clip-path="url(#c3e2b8f63d)"><path fill="#79d84b" d="M 287.382812 315.316406 C 305.054688 297.644531 333.707031 297.644531 351.378906 315.316406 L 351.378906 315.320312 C 360.882812 324.820312 365.265625 337.5 364.550781 349.9375 L 380.929688 349.9375 C 380.964844 349.066406 380.992188 348.195312 380.992188 347.316406 C 380.992188 330.859375 374.582031 315.390625 362.945312 303.753906 C 351.308594 292.117188 335.835938 285.707031 319.378906 285.707031 C 302.921875 285.707031 287.449219 292.117188 275.8125 303.753906 L 268.292969 311.273438 L 279.859375 322.839844 L 287.382812 315.316406 " fill-opacity="1" fill-rule="nonzero"/></g><g clip-path="url(#9a5ee9bd20)"><path fill="#79d84b" d="M 569.351562 344.417969 L 569.351562 302.074219 L 509.941406 302.074219 L 509.941406 349.9375 L 525.003906 349.9375 L 525.003906 317.136719 L 554.289062 317.136719 L 554.289062 359.476562 L 587.09375 359.476562 L 587.09375 388.765625 L 554.289062 388.765625 L 554.289062 429.828125 L 525.003906 429.828125 L 525.003906 397.027344 L 492.875 396.910156 L 458.976562 344.417969 L 425.011719 397.015625 L 399.601562 357.679688 L 374.269531 396.910156 L 333.667969 397.027344 L 268.292969 462.40625 L 279.859375 473.972656 L 341.859375 411.972656 L 381.324219 411.972656 L 399.601562 383.667969 L 425.011719 423.003906 L 458.976562 370.402344 L 485.816406 411.972656 L 509.941406 411.972656 L 509.941406 444.890625 L 569.351562 444.890625 L 569.351562 403.824219 L 602.15625 403.824219 L 602.15625 344.417969 L 569.351562 344.417969 " fill-opacity="1" fill-rule="nonzero"/></g><g clip-path="url(#f142b891a6)"><path fill="#cc0200" d="M 196.738281 303.753906 C 208.375 292.117188 223.847656 285.707031 240.304688 285.707031 C 256.761719 285.707031 272.234375 292.117188 283.871094 303.753906 L 291.390625 311.273438 L 279.824219 322.839844 L 272.304688 315.320312 C 254.628906 297.644531 225.976562 297.644531 208.304688 315.320312 C 190.632812 332.992188 190.632812 361.644531 208.304688 379.316406 L 291.390625 462.40625 L 279.824219 473.972656 L 196.738281 390.882812 C 185.101562 379.246094 178.691406 363.773438 178.691406 347.316406 C 178.691406 330.859375 185.101562 315.390625 196.738281 303.753906 " fill-opacity="1" fill-rule="nonzero"/></g><g fill="#ffffff" fill-opacity="1"><g transform="translate(579.372861, 160.05265)"><g><path d="M 12.265625 -21.015625 C 12.859375 -21.015625 13.375 -20.75 13.8125 -20.21875 C 14.25 -19.6875 14.613281 -18.972656 14.90625 -18.078125 C 15.195312 -17.191406 15.414062 -16.15625 15.5625 -14.96875 C 15.707031 -13.78125 15.78125 -12.523438 15.78125 -11.203125 C 15.78125 -10.066406 15.703125 -8.957031 15.546875 -7.875 C 15.390625 -6.800781 15.148438 -5.789062 14.828125 -4.84375 C 15.109375 -4.175781 15.546875 -3.566406 16.140625 -3.015625 C 16.742188 -2.460938 17.484375 -2.1875 18.359375 -2.1875 C 19.191406 -2.1875 19.878906 -2.4375 20.421875 -2.9375 C 20.972656 -3.4375 21.421875 -4.101562 21.765625 -4.9375 C 22.117188 -5.769531 22.363281 -6.722656 22.5 -7.796875 C 22.644531 -8.867188 22.71875 -9.984375 22.71875 -11.140625 C 22.71875 -12.117188 22.664062 -13.0625 22.5625 -13.96875 C 22.457031 -14.882812 22.300781 -15.738281 22.09375 -16.53125 C 21.894531 -17.320312 21.660156 -18.03125 21.390625 -18.65625 C 21.117188 -19.289062 20.800781 -19.800781 20.4375 -20.1875 C 20.59375 -20.4375 20.800781 -20.632812 21.0625 -20.78125 C 21.332031 -20.9375 21.628906 -21.015625 21.953125 -21.015625 C 22.546875 -21.015625 23.0625 -20.75 23.5 -20.21875 C 23.9375 -19.6875 24.300781 -18.972656 24.59375 -18.078125 C 24.882812 -17.191406 25.097656 -16.15625 25.234375 -14.96875 C 25.378906 -13.78125 25.453125 -12.523438 25.453125 -11.203125 C 25.453125 -9.785156 25.34375 -8.390625 25.125 -7.015625 C 24.914062 -5.648438 24.550781 -4.421875 24.03125 -3.328125 C 23.519531 -2.242188 22.820312 -1.367188 21.9375 -0.703125 C 21.050781 -0.0351562 19.941406 0.296875 18.609375 0.296875 C 18.015625 0.296875 17.46875 0.210938 16.96875 0.046875 C 16.476562 -0.109375 16.035156 -0.328125 15.640625 -0.609375 C 15.242188 -0.890625 14.890625 -1.21875 14.578125 -1.59375 C 14.273438 -1.96875 14.023438 -2.359375 13.828125 -2.765625 C 13.234375 -1.816406 12.476562 -1.066406 11.5625 -0.515625 C 10.65625 0.0234375 9.5625 0.296875 8.28125 0.296875 C 6.269531 0.296875 4.773438 -0.347656 3.796875 -1.640625 C 2.828125 -2.941406 2.34375 -4.820312 2.34375 -7.28125 L 2.34375 -17.484375 C 2.34375 -17.929688 2.242188 -18.242188 2.046875 -18.421875 C 1.859375 -18.609375 1.539062 -18.703125 1.09375 -18.703125 L 0.765625 -18.703125 C 0.617188 -18.984375 0.546875 -19.265625 0.546875 -19.546875 C 0.546875 -19.992188 0.722656 -20.347656 1.078125 -20.609375 C 1.429688 -20.878906 1.90625 -21.015625 2.5 -21.015625 C 3.445312 -21.015625 4.113281 -20.679688 4.5 -20.015625 C 4.882812 -19.359375 5.078125 -18.492188 5.078125 -17.421875 L 5.078125 -7.40625 C 5.078125 -5.757812 5.351562 -4.476562 5.90625 -3.5625 C 6.457031 -2.644531 7.269531 -2.1875 8.34375 -2.1875 C 9.175781 -2.1875 9.890625 -2.4375 10.484375 -2.9375 C 11.085938 -3.4375 11.578125 -4.101562 11.953125 -4.9375 C 12.328125 -5.769531 12.597656 -6.726562 12.765625 -7.8125 C 12.941406 -8.894531 13.03125 -10.023438 13.03125 -11.203125 C 13.03125 -12.179688 12.984375 -13.117188 12.890625 -14.015625 C 12.804688 -14.921875 12.664062 -15.765625 12.46875 -16.546875 C 12.28125 -17.328125 12.039062 -18.023438 11.75 -18.640625 C 11.46875 -19.265625 11.132812 -19.78125 10.75 -20.1875 C 10.914062 -20.4375 11.128906 -20.632812 11.390625 -20.78125 C 11.648438 -20.9375 11.941406 -21.015625 12.265625 -21.015625 Z M 12.265625 -21.015625 "/></g></g></g><g fill="#ffffff" fill-opacity="1"><g transform="translate(606.601432, 160.05265)"><g><path d="M 1.125 -7.609375 C 1.125 -8.703125 1.289062 -9.734375 1.625 -10.703125 C 1.957031 -11.671875 2.441406 -12.507812 3.078125 -13.21875 C 3.722656 -13.925781 4.507812 -14.488281 5.4375 -14.90625 C 6.363281 -15.320312 7.414062 -15.53125 8.59375 -15.53125 C 9.75 -15.53125 10.785156 -15.320312 11.703125 -14.90625 C 12.628906 -14.488281 13.410156 -13.925781 14.046875 -13.21875 C 14.691406 -12.507812 15.1875 -11.671875 15.53125 -10.703125 C 15.875 -9.734375 16.046875 -8.703125 16.046875 -7.609375 C 16.046875 -6.515625 15.875 -5.484375 15.53125 -4.515625 C 15.1875 -3.554688 14.691406 -2.71875 14.046875 -2 C 13.410156 -1.289062 12.628906 -0.726562 11.703125 -0.3125 C 10.785156 0.09375 9.75 0.296875 8.59375 0.296875 C 7.414062 0.296875 6.363281 0.09375 5.4375 -0.3125 C 4.507812 -0.726562 3.722656 -1.289062 3.078125 -2 C 2.441406 -2.71875 1.957031 -3.554688 1.625 -4.515625 C 1.289062 -5.484375 1.125 -6.515625 1.125 -7.609375 Z M 3.875 -7.609375 C 3.875 -6.859375 3.976562 -6.148438 4.1875 -5.484375 C 4.394531 -4.828125 4.703125 -4.253906 5.109375 -3.765625 C 5.515625 -3.285156 6.007812 -2.898438 6.59375 -2.609375 C 7.175781 -2.328125 7.84375 -2.1875 8.59375 -2.1875 C 9.34375 -2.1875 10.003906 -2.328125 10.578125 -2.609375 C 11.160156 -2.898438 11.65625 -3.285156 12.0625 -3.765625 C 12.46875 -4.253906 12.773438 -4.828125 12.984375 -5.484375 C 13.203125 -6.148438 13.3125 -6.859375 13.3125 -7.609375 C 13.3125 -8.359375 13.203125 -9.0625 12.984375 -9.71875 C 12.773438 -10.382812 12.46875 -10.960938 12.0625 -11.453125 C 11.65625 -11.941406 11.160156 -12.328125 10.578125 -12.609375 C 10.003906 -12.890625 9.34375 -13.03125 8.59375 -13.03125 C 7.84375 -13.03125 7.175781 -12.890625 6.59375 -12.609375 C 6.007812 -12.328125 5.515625 -11.941406 5.109375 -11.453125 C 4.703125 -10.960938 4.394531 -10.382812 4.1875 -9.71875 C 3.976562 -9.0625 3.875 -8.359375 3.875 -7.609375 Z M 3.875 -7.609375 "/></g></g></g><g fill="#ffffff" fill-opacity="1"><g transform="translate(623.779197, 160.05265)"><g><path d="M 4.9375 -1.703125 C 4.9375 -0.992188 4.816406 -0.484375 4.578125 -0.171875 C 4.347656 0.140625 3.96875 0.296875 3.4375 0.296875 C 2.988281 0.296875 2.570312 0.15625 2.1875 -0.125 L 2.1875 -12 C 2.1875 -12.445312 2.085938 -12.757812 1.890625 -12.9375 C 1.703125 -13.125 1.382812 -13.21875 0.9375 -13.21875 L 0.609375 -13.21875 C 0.460938 -13.5 0.390625 -13.78125 0.390625 -14.0625 C 0.390625 -14.507812 0.566406 -14.863281 0.921875 -15.125 C 1.285156 -15.394531 1.757812 -15.53125 2.34375 -15.53125 C 3.300781 -15.53125 3.972656 -15.195312 4.359375 -14.53125 C 4.742188 -13.875 4.9375 -13.007812 4.9375 -11.9375 L 4.9375 -11.578125 C 5.257812 -12.796875 5.753906 -13.757812 6.421875 -14.46875 C 7.097656 -15.175781 7.953125 -15.53125 8.984375 -15.53125 C 9.835938 -15.53125 10.515625 -15.257812 11.015625 -14.71875 C 11.523438 -14.1875 11.78125 -13.484375 11.78125 -12.609375 C 11.78125 -11.992188 11.640625 -11.519531 11.359375 -11.1875 C 11.078125 -10.851562 10.679688 -10.6875 10.171875 -10.6875 C 9.804688 -10.6875 9.410156 -10.78125 8.984375 -10.96875 C 8.984375 -11.570312 8.890625 -12.066406 8.703125 -12.453125 C 8.523438 -12.835938 8.234375 -13.03125 7.828125 -13.03125 C 7.441406 -13.03125 7.078125 -12.878906 6.734375 -12.578125 C 6.390625 -12.273438 6.082031 -11.816406 5.8125 -11.203125 C 5.550781 -10.597656 5.335938 -9.828125 5.171875 -8.890625 C 5.015625 -7.953125 4.9375 -6.859375 4.9375 -5.609375 Z M 4.9375 -1.703125 "/></g></g></g><g fill="#ffffff" fill-opacity="1"><g transform="translate(636.236113, 160.05265)"><g><path d="M 2.046875 -18.390625 C 2.046875 -18.835938 1.945312 -19.148438 1.75 -19.328125 C 1.5625 -19.515625 1.242188 -19.609375 0.796875 -19.609375 L 0.453125 -19.609375 C 0.316406 -19.890625 0.25 -20.175781 0.25 -20.46875 C 0.25 -20.914062 0.425781 -21.269531 0.78125 -21.53125 C 1.132812 -21.789062 1.601562 -21.921875 2.1875 -21.921875 C 3.144531 -21.921875 3.816406 -21.59375 4.203125 -20.9375 C 4.585938 -20.28125 4.78125 -19.410156 4.78125 -18.328125 L 4.78125 -3.234375 C 4.78125 -2.785156 4.878906 -2.46875 5.078125 -2.28125 C 5.285156 -2.101562 5.644531 -2.015625 6.15625 -2.015625 L 6.671875 -2.015625 C 6.804688 -1.722656 6.875 -1.4375 6.875 -1.15625 C 6.875 -0.707031 6.675781 -0.351562 6.28125 -0.09375 C 5.882812 0.164062 5.394531 0.296875 4.8125 0.296875 C 3.832031 0.296875 3.125 -0.03125 2.6875 -0.6875 C 2.257812 -1.34375 2.046875 -2.207031 2.046875 -3.28125 Z M 2.046875 -18.390625 "/></g></g></g><g fill="#ffffff" fill-opacity="1"><g transform="translate(643.515345, 160.05265)"><g><path d="M 1.125 -7.609375 C 1.125 -8.847656 1.285156 -9.957031 1.609375 -10.9375 C 1.929688 -11.925781 2.378906 -12.757812 2.953125 -13.4375 C 3.523438 -14.125 4.195312 -14.644531 4.96875 -15 C 5.738281 -15.351562 6.570312 -15.53125 7.46875 -15.53125 C 8.195312 -15.53125 8.90625 -15.378906 9.59375 -15.078125 C 10.28125 -14.773438 10.890625 -14.328125 11.421875 -13.734375 L 11.421875 -18.390625 C 11.421875 -18.835938 11.320312 -19.148438 11.125 -19.328125 C 10.9375 -19.515625 10.617188 -19.609375 10.171875 -19.609375 L 9.84375 -19.609375 C 9.695312 -19.890625 9.625 -20.175781 9.625 -20.46875 C 9.625 -20.914062 9.800781 -21.269531 10.15625 -21.53125 C 10.507812 -21.789062 10.984375 -21.921875 11.578125 -21.921875 C 12.523438 -21.921875 13.191406 -21.59375 13.578125 -20.9375 C 13.960938 -20.28125 14.15625 -19.410156 14.15625 -18.328125 L 14.15625 -3.234375 C 14.15625 -2.785156 14.25 -2.46875 14.4375 -2.28125 C 14.632812 -2.101562 14.957031 -2.015625 15.40625 -2.015625 L 15.75 -2.015625 C 15.882812 -1.722656 15.953125 -1.4375 15.953125 -1.15625 C 15.953125 -0.707031 15.773438 -0.351562 15.421875 -0.09375 C 15.066406 0.164062 14.597656 0.296875 14.015625 0.296875 C 13.234375 0.296875 12.640625 0.09375 12.234375 -0.3125 C 11.835938 -0.726562 11.585938 -1.304688 11.484375 -2.046875 C 11.234375 -1.578125 10.925781 -1.1875 10.5625 -0.875 C 10.195312 -0.570312 9.804688 -0.332031 9.390625 -0.15625 C 8.972656 0.0078125 8.566406 0.125 8.171875 0.1875 C 7.773438 0.257812 7.425781 0.296875 7.125 0.296875 C 6.226562 0.296875 5.414062 0.113281 4.6875 -0.25 C 3.957031 -0.613281 3.328125 -1.132812 2.796875 -1.8125 C 2.273438 -2.488281 1.863281 -3.3125 1.5625 -4.28125 C 1.269531 -5.257812 1.125 -6.367188 1.125 -7.609375 Z M 7.765625 -2.1875 C 8.066406 -2.1875 8.425781 -2.238281 8.84375 -2.34375 C 9.257812 -2.445312 9.65625 -2.632812 10.03125 -2.90625 C 10.40625 -3.175781 10.726562 -3.5625 11 -4.0625 C 11.28125 -4.5625 11.421875 -5.21875 11.421875 -6.03125 L 11.421875 -10.90625 C 11.210938 -11.269531 10.957031 -11.585938 10.65625 -11.859375 C 10.351562 -12.128906 10.039062 -12.351562 9.71875 -12.53125 C 9.394531 -12.707031 9.0625 -12.832031 8.71875 -12.90625 C 8.382812 -12.988281 8.066406 -13.03125 7.765625 -13.03125 C 6.585938 -13.03125 5.644531 -12.570312 4.9375 -11.65625 C 4.226562 -10.75 3.875 -9.398438 3.875 -7.609375 C 3.875 -5.828125 4.226562 -4.476562 4.9375 -3.5625 C 5.644531 -2.644531 6.585938 -2.1875 7.765625 -2.1875 Z M 7.765625 -2.1875 "/></g></g></g><g fill="#ffffff" fill-opacity="1"><g transform="translate(659.870759, 160.05265)"><g/></g></g><g fill="#ffffff" fill-opacity="1"><g transform="translate(669.312432, 160.05265)"><g><path d="M 17.578125 -3.234375 C 17.578125 -2.785156 17.671875 -2.46875 17.859375 -2.28125 C 18.054688 -2.101562 18.375 -2.015625 18.8125 -2.015625 L 19.15625 -2.015625 C 19.300781 -1.722656 19.375 -1.4375 19.375 -1.15625 C 19.375 -0.707031 19.191406 -0.351562 18.828125 -0.09375 C 18.472656 0.164062 18.003906 0.296875 17.421875 0.296875 C 16.460938 0.296875 15.789062 -0.0351562 15.40625 -0.703125 C 15.019531 -1.367188 14.828125 -2.226562 14.828125 -3.28125 L 14.828125 -8.25 L 5.078125 -8.25 L 5.078125 -1.21875 C 5.078125 -0.6875 4.941406 -0.300781 4.671875 -0.0625 C 4.398438 0.175781 4.039062 0.296875 3.59375 0.296875 C 3.144531 0.296875 2.726562 0.15625 2.34375 -0.125 L 2.34375 -17.484375 C 2.34375 -17.929688 2.242188 -18.242188 2.046875 -18.421875 C 1.859375 -18.609375 1.539062 -18.703125 1.09375 -18.703125 L 0.765625 -18.703125 C 0.617188 -18.984375 0.546875 -19.265625 0.546875 -19.546875 C 0.546875 -19.992188 0.722656 -20.347656 1.078125 -20.609375 C 1.429688 -20.878906 1.90625 -21.015625 2.5 -21.015625 C 3.445312 -21.015625 4.113281 -20.679688 4.5 -20.015625 C 4.882812 -19.359375 5.078125 -18.492188 5.078125 -17.421875 L 5.078125 -10.75 L 14.828125 -10.75 L 14.828125 -19.484375 C 14.828125 -20.015625 14.960938 -20.398438 15.234375 -20.640625 C 15.515625 -20.890625 15.867188 -21.015625 16.296875 -21.015625 C 16.742188 -21.015625 17.171875 -20.875 17.578125 -20.59375 Z M 17.578125 -3.234375 "/></g></g></g><g fill="#ffffff" fill-opacity="1"><g transform="translate(689.231318, 160.05265)"><g><path d="M 3.921875 -7.03125 C 3.984375 -6.363281 4.125 -5.734375 4.34375 -5.140625 C 4.570312 -4.554688 4.882812 -4.046875 5.28125 -3.609375 C 5.675781 -3.171875 6.148438 -2.820312 6.703125 -2.5625 C 7.265625 -2.3125 7.90625 -2.1875 8.625 -2.1875 C 9.570312 -2.1875 10.4375 -2.367188 11.21875 -2.734375 C 12 -3.097656 12.632812 -3.597656 13.125 -4.234375 C 13.851562 -3.992188 14.21875 -3.492188 14.21875 -2.734375 C 14.21875 -2.296875 14.046875 -1.882812 13.703125 -1.5 C 13.359375 -1.125 12.910156 -0.800781 12.359375 -0.53125 C 11.816406 -0.257812 11.195312 -0.0546875 10.5 0.078125 C 9.8125 0.222656 9.132812 0.296875 8.46875 0.296875 C 7.375 0.296875 6.375 0.125 5.46875 -0.21875 C 4.5625 -0.5625 3.785156 -1.066406 3.140625 -1.734375 C 2.503906 -2.398438 2.007812 -3.222656 1.65625 -4.203125 C 1.300781 -5.191406 1.125 -6.328125 1.125 -7.609375 C 1.125 -8.953125 1.320312 -10.113281 1.71875 -11.09375 C 2.113281 -12.082031 2.632812 -12.90625 3.28125 -13.5625 C 3.9375 -14.226562 4.695312 -14.722656 5.5625 -15.046875 C 6.425781 -15.367188 7.320312 -15.53125 8.25 -15.53125 C 9.226562 -15.53125 10.101562 -15.363281 10.875 -15.03125 C 11.644531 -14.695312 12.296875 -14.234375 12.828125 -13.640625 C 13.367188 -13.054688 13.785156 -12.359375 14.078125 -11.546875 C 14.378906 -10.734375 14.53125 -9.847656 14.53125 -8.890625 C 14.53125 -7.648438 13.953125 -7.03125 12.796875 -7.03125 Z M 8.21875 -13.03125 C 7.164062 -13.03125 6.253906 -12.703125 5.484375 -12.046875 C 4.710938 -11.398438 4.210938 -10.410156 3.984375 -9.078125 L 11.75 -9.078125 C 11.6875 -10.335938 11.351562 -11.3125 10.75 -12 C 10.15625 -12.6875 9.3125 -13.03125 8.21875 -13.03125 Z M 8.21875 -13.03125 "/></g></g></g><g fill="#ffffff" fill-opacity="1"><g transform="translate(704.886229, 160.05265)"><g><path d="M 10.421875 -9.625 C 10.421875 -10.84375 10.128906 -11.710938 9.546875 -12.234375 C 8.960938 -12.765625 8.144531 -13.03125 7.09375 -13.03125 C 6.195312 -13.03125 5.535156 -12.800781 5.109375 -12.34375 C 4.691406 -11.882812 4.484375 -11.257812 4.484375 -10.46875 C 3.972656 -10.269531 3.546875 -10.171875 3.203125 -10.171875 C 2.773438 -10.171875 2.421875 -10.320312 2.140625 -10.625 C 1.867188 -10.925781 1.734375 -11.394531 1.734375 -12.03125 C 1.734375 -12.613281 1.882812 -13.128906 2.1875 -13.578125 C 2.5 -14.023438 2.898438 -14.390625 3.390625 -14.671875 C 3.890625 -14.960938 4.46875 -15.175781 5.125 -15.3125 C 5.789062 -15.457031 6.476562 -15.53125 7.1875 -15.53125 C 8.0625 -15.53125 8.863281 -15.421875 9.59375 -15.203125 C 10.320312 -14.992188 10.945312 -14.65625 11.46875 -14.1875 C 12 -13.71875 12.410156 -13.125 12.703125 -12.40625 C 13.003906 -11.6875 13.15625 -10.820312 13.15625 -9.8125 L 13.15625 -3.234375 C 13.15625 -2.785156 13.25 -2.46875 13.4375 -2.28125 C 13.632812 -2.101562 13.957031 -2.015625 14.40625 -2.015625 L 14.734375 -2.015625 C 14.878906 -1.722656 14.953125 -1.4375 14.953125 -1.15625 C 14.953125 -0.707031 14.773438 -0.351562 14.421875 -0.09375 C 14.066406 0.164062 13.59375 0.296875 13 0.296875 C 12.25 0.296875 11.679688 0.0976562 11.296875 -0.296875 C 10.910156 -0.691406 10.65625 -1.234375 10.53125 -1.921875 C 10.082031 -1.148438 9.46875 -0.585938 8.6875 -0.234375 C 7.90625 0.117188 7.03125 0.296875 6.0625 0.296875 C 5.425781 0.296875 4.8125 0.207031 4.21875 0.03125 C 3.632812 -0.132812 3.113281 -0.394531 2.65625 -0.75 C 2.207031 -1.101562 1.835938 -1.554688 1.546875 -2.109375 C 1.265625 -2.671875 1.125 -3.347656 1.125 -4.140625 C 1.125 -4.972656 1.289062 -5.675781 1.625 -6.25 C 1.957031 -6.832031 2.40625 -7.304688 2.96875 -7.671875 C 3.53125 -8.035156 4.164062 -8.296875 4.875 -8.453125 C 5.582031 -8.617188 6.3125 -8.703125 7.0625 -8.703125 C 7.675781 -8.703125 8.265625 -8.648438 8.828125 -8.546875 C 9.398438 -8.453125 9.929688 -8.320312 10.421875 -8.15625 Z M 6.609375 -2.1875 C 7.078125 -2.1875 7.535156 -2.253906 7.984375 -2.390625 C 8.441406 -2.523438 8.847656 -2.722656 9.203125 -2.984375 C 9.566406 -3.242188 9.859375 -3.582031 10.078125 -4 C 10.304688 -4.414062 10.421875 -4.910156 10.421875 -5.484375 L 10.421875 -6.15625 C 10.046875 -6.269531 9.5625 -6.382812 8.96875 -6.5 C 8.382812 -6.613281 7.78125 -6.671875 7.15625 -6.671875 C 6.726562 -6.671875 6.316406 -6.632812 5.921875 -6.5625 C 5.523438 -6.488281 5.175781 -6.363281 4.875 -6.1875 C 4.570312 -6.019531 4.328125 -5.789062 4.140625 -5.5 C 3.960938 -5.207031 3.875 -4.847656 3.875 -4.421875 C 3.875 -3.628906 4.128906 -3.054688 4.640625 -2.703125 C 5.160156 -2.359375 5.816406 -2.1875 6.609375 -2.1875 Z M 6.609375 -2.1875 "/></g></g></g><g fill="#ffffff" fill-opacity="1"><g transform="translate(720.236566, 160.05265)"><g><path d="M 1.890625 -17.78125 C 1.890625 -18.488281 2.003906 -19 2.234375 -19.3125 C 2.472656 -19.632812 2.851562 -19.796875 3.375 -19.796875 C 3.820312 -19.796875 4.238281 -19.65625 4.625 -19.375 L 4.625 -15.234375 L 9.375 -15.234375 C 9.5 -15.066406 9.601562 -14.878906 9.6875 -14.671875 C 9.769531 -14.472656 9.8125 -14.257812 9.8125 -14.03125 C 9.8125 -13.644531 9.695312 -13.332031 9.46875 -13.09375 C 9.25 -12.851562 8.863281 -12.734375 8.3125 -12.734375 L 4.625 -12.734375 L 4.625 -4.71875 C 4.625 -3.90625 4.800781 -3.28125 5.15625 -2.84375 C 5.507812 -2.40625 6.003906 -2.1875 6.640625 -2.1875 C 7.535156 -2.1875 8.328125 -2.59375 9.015625 -3.40625 C 9.359375 -3.269531 9.625 -3.09375 9.8125 -2.875 C 10.007812 -2.664062 10.109375 -2.378906 10.109375 -2.015625 C 10.109375 -1.609375 9.992188 -1.253906 9.765625 -0.953125 C 9.546875 -0.660156 9.253906 -0.421875 8.890625 -0.234375 C 8.523438 -0.0546875 8.117188 0.0703125 7.671875 0.15625 C 7.222656 0.25 6.773438 0.296875 6.328125 0.296875 C 5.703125 0.296875 5.113281 0.203125 4.5625 0.015625 C 4.019531 -0.160156 3.550781 -0.441406 3.15625 -0.828125 C 2.757812 -1.210938 2.445312 -1.71875 2.21875 -2.34375 C 2 -2.96875 1.890625 -3.71875 1.890625 -4.59375 Z M 1.890625 -17.78125 "/></g></g></g><g fill="#ffffff" fill-opacity="1"><g transform="translate(731.018353, 160.05265)"><g><path d="M 2.046875 -18.390625 C 2.046875 -18.835938 1.945312 -19.148438 1.75 -19.328125 C 1.5625 -19.515625 1.242188 -19.609375 0.796875 -19.609375 L 0.453125 -19.609375 C 0.316406 -19.890625 0.25 -20.175781 0.25 -20.46875 C 0.25 -20.914062 0.425781 -21.269531 0.78125 -21.53125 C 1.132812 -21.789062 1.601562 -21.921875 2.1875 -21.921875 C 3.144531 -21.921875 3.816406 -21.59375 4.203125 -20.9375 C 4.585938 -20.28125 4.78125 -19.410156 4.78125 -18.328125 L 4.78125 -3.234375 C 4.78125 -2.785156 4.878906 -2.46875 5.078125 -2.28125 C 5.285156 -2.101562 5.644531 -2.015625 6.15625 -2.015625 L 6.671875 -2.015625 C 6.804688 -1.722656 6.875 -1.4375 6.875 -1.15625 C 6.875 -0.707031 6.675781 -0.351562 6.28125 -0.09375 C 5.882812 0.164062 5.394531 0.296875 4.8125 0.296875 C 3.832031 0.296875 3.125 -0.03125 2.6875 -0.6875 C 2.257812 -1.34375 2.046875 -2.207031 2.046875 -3.28125 Z M 2.046875 -18.390625 "/></g></g></g><g fill="#ffffff" fill-opacity="1"><g transform="translate(738.297585, 160.05265)"><g><path d="M 4.78125 -1.703125 C 4.78125 -0.992188 4.660156 -0.484375 4.421875 -0.171875 C 4.191406 0.140625 3.8125 0.296875 3.28125 0.296875 C 2.84375 0.296875 2.429688 0.15625 2.046875 -0.125 L 2.046875 -18.390625 C 2.046875 -18.835938 1.945312 -19.148438 1.75 -19.328125 C 1.5625 -19.515625 1.242188 -19.609375 0.796875 -19.609375 L 0.453125 -19.609375 C 0.316406 -19.890625 0.25 -20.175781 0.25 -20.46875 C 0.25 -20.914062 0.425781 -21.269531 0.78125 -21.53125 C 1.132812 -21.789062 1.601562 -21.921875 2.1875 -21.921875 C 3.144531 -21.921875 3.816406 -21.59375 4.203125 -20.9375 C 4.585938 -20.28125 4.78125 -19.410156 4.78125 -18.328125 L 4.78125 -13.34375 C 5.3125 -13.988281 5.945312 -14.515625 6.6875 -14.921875 C 7.425781 -15.328125 8.265625 -15.53125 9.203125 -15.53125 C 10.660156 -15.53125 11.859375 -15.078125 12.796875 -14.171875 C 13.742188 -13.273438 14.21875 -11.910156 14.21875 -10.078125 L 14.21875 -3.234375 C 14.21875 -2.785156 14.3125 -2.46875 14.5 -2.28125 C 14.695312 -2.101562 15.019531 -2.015625 15.46875 -2.015625 L 15.8125 -2.015625 C 15.945312 -1.722656 16.015625 -1.4375 16.015625 -1.15625 C 16.015625 -0.707031 15.835938 -0.351562 15.484375 -0.09375 C 15.128906 0.164062 14.65625 0.296875 14.0625 0.296875 C 13.113281 0.296875 12.445312 -0.0351562 12.0625 -0.703125 C 11.675781 -1.367188 11.484375 -2.226562 11.484375 -3.28125 L 11.484375 -9.953125 C 11.484375 -11.054688 11.21875 -11.84375 10.6875 -12.3125 C 10.15625 -12.789062 9.535156 -13.03125 8.828125 -13.03125 C 7.921875 -13.03125 7.125 -12.765625 6.4375 -12.234375 C 5.757812 -11.710938 5.207031 -11.046875 4.78125 -10.234375 Z M 4.78125 -1.703125 "/></g></g></g><g fill="#79d84b" fill-opacity="1"><g transform="translate(221.662272, 537.586697)"><g><path d="M 29.734375 0 L 24.71875 0 L 24.71875 -12.34375 L 8.9375 -12.34375 L 8.9375 0 L 3.921875 0 L 3.921875 -29.78125 L 8.9375 -29.78125 L 8.9375 -16.84375 L 24.71875 -16.84375 L 24.71875 -29.78125 L 29.734375 -29.78125 Z M 29.734375 0 "/></g></g></g><g fill="#79d84b" fill-opacity="1"><g transform="translate(255.310716, 537.586697)"><g><path d="M 12.9375 -22.8125 C 16.820312 -22.8125 19.632812 -21.640625 21.375 -19.296875 C 23.125 -16.953125 23.84375 -13.671875 23.53125 -9.453125 L 6.421875 -9.453125 C 6.816406 -7.691406 7.640625 -6.304688 8.890625 -5.296875 C 10.140625 -4.285156 11.65625 -3.78125 13.4375 -3.78125 C 16 -3.78125 18.128906 -4.660156 19.828125 -6.421875 L 22.421875 -3.65625 C 20.097656 -1.101562 16.976562 0.171875 13.0625 0.171875 C 9.570312 0.171875 6.769531 -0.882812 4.65625 -3 C 2.539062 -5.113281 1.484375 -7.867188 1.484375 -11.265625 C 1.484375 -14.671875 2.546875 -17.4375 4.671875 -19.5625 C 6.804688 -21.695312 9.5625 -22.78125 12.9375 -22.8125 Z M 6.34375 -13.015625 L 19.28125 -13.015625 C 19.1875 -14.835938 18.570312 -16.269531 17.4375 -17.3125 C 16.3125 -18.363281 14.828125 -18.890625 12.984375 -18.890625 C 11.191406 -18.890625 9.707031 -18.363281 8.53125 -17.3125 C 7.351562 -16.269531 6.625 -14.835938 6.34375 -13.015625 Z M 6.34375 -13.015625 "/></g></g></g><g fill="#79d84b" fill-opacity="1"><g transform="translate(280.323722, 537.586697)"><g><path d="M 17.1875 0 L 17.1875 -2.765625 C 15.570312 -0.773438 13.078125 0.21875 9.703125 0.21875 C 7.285156 0.21875 5.351562 -0.441406 3.90625 -1.765625 C 2.46875 -3.085938 1.75 -4.769531 1.75 -6.8125 C 1.75 -8.875 2.5 -10.515625 4 -11.734375 C 5.5 -12.960938 7.597656 -13.585938 10.296875 -13.609375 L 17.140625 -13.609375 L 17.140625 -14.296875 C 17.140625 -15.742188 16.675781 -16.863281 15.75 -17.65625 C 14.832031 -18.445312 13.5 -18.84375 11.75 -18.84375 C 9.5625 -18.84375 7.332031 -18.078125 5.0625 -16.546875 L 3.0625 -19.953125 C 4.789062 -20.972656 6.34375 -21.703125 7.71875 -22.140625 C 9.09375 -22.585938 10.789062 -22.8125 12.8125 -22.8125 C 15.695312 -22.8125 17.929688 -22.109375 19.515625 -20.703125 C 21.109375 -19.296875 21.921875 -17.34375 21.953125 -14.84375 L 22 0 Z M 10.71875 -3.65625 C 12.445312 -3.65625 13.914062 -4.054688 15.125 -4.859375 C 16.332031 -5.671875 17.003906 -6.703125 17.140625 -7.953125 L 17.140625 -10.046875 L 11.015625 -10.046875 C 9.398438 -10.046875 8.21875 -9.8125 7.46875 -9.34375 C 6.71875 -8.875 6.34375 -8.097656 6.34375 -7.015625 C 6.34375 -5.992188 6.726562 -5.175781 7.5 -4.5625 C 8.28125 -3.957031 9.351562 -3.65625 10.71875 -3.65625 Z M 10.71875 -3.65625 "/></g></g></g><g fill="#79d84b" fill-opacity="1"><g transform="translate(305.251642, 537.586697)"><g><path d="M 8.71875 0 L 3.828125 0 L 3.828125 -31.5625 L 8.71875 -31.5625 Z M 8.71875 0 "/></g></g></g><g fill="#79d84b" fill-opacity="1"><g transform="translate(317.800683, 537.586697)"><g><path d="M 15.1875 -5.1875 L 16.421875 -1.453125 C 14.546875 -0.335938 12.6875 0.21875 10.84375 0.21875 C 9 0.21875 7.484375 -0.332031 6.296875 -1.4375 C 5.109375 -2.550781 4.515625 -4.195312 4.515625 -6.375 L 4.515625 -18.125 L 1.3125 -18.125 L 1.3125 -21.78125 L 4.515625 -21.78125 L 4.515625 -28 L 9.359375 -28 L 9.359375 -21.78125 L 16.046875 -21.78125 L 16.046875 -18.125 L 9.359375 -18.125 L 9.359375 -7.28125 C 9.359375 -6.144531 9.554688 -5.347656 9.953125 -4.890625 C 10.347656 -4.441406 10.957031 -4.21875 11.78125 -4.21875 C 12.6875 -4.21875 13.820312 -4.539062 15.1875 -5.1875 Z M 15.1875 -5.1875 "/></g></g></g><g fill="#79d84b" fill-opacity="1"><g transform="translate(335.114105, 537.586697)"><g><path d="M 17.109375 -22.8125 C 19.742188 -22.8125 21.804688 -22.035156 23.296875 -20.484375 C 24.785156 -18.941406 25.53125 -16.804688 25.53125 -14.078125 L 25.53125 0 L 20.640625 0 L 20.640625 -12.71875 C 20.640625 -14.425781 20.15625 -15.765625 19.1875 -16.734375 C 18.21875 -17.710938 16.882812 -18.203125 15.1875 -18.203125 C 13.207031 -18.179688 11.632812 -17.507812 10.46875 -16.1875 C 9.300781 -14.863281 8.71875 -13.179688 8.71875 -11.140625 L 8.71875 0 L 3.828125 0 L 3.828125 -31.5625 L 8.71875 -31.5625 L 8.71875 -18.203125 C 10.28125 -21.273438 13.078125 -22.8125 17.109375 -22.8125 Z M 17.109375 -22.8125 "/></g></g></g><g fill="#79d84b" fill-opacity="1"><g transform="translate(363.57278, 537.586697)"><g><path d="M 24.296875 -14.640625 L 28.671875 -14.640625 L 28.671875 -3.65625 C 27.140625 -2.5 25.332031 -1.5625 23.25 -0.84375 C 21.164062 -0.132812 19.117188 0.21875 17.109375 0.21875 C 12.710938 0.21875 9.003906 -1.234375 5.984375 -4.140625 C 2.960938 -7.054688 1.453125 -10.640625 1.453125 -14.890625 C 1.453125 -19.148438 2.984375 -22.71875 6.046875 -25.59375 C 9.109375 -28.46875 12.894531 -29.90625 17.40625 -29.90625 C 19.5 -29.90625 21.5625 -29.53125 23.59375 -28.78125 C 25.625 -28.03125 27.375 -27.015625 28.84375 -25.734375 L 26 -22.046875 C 23.5625 -24.304688 20.695312 -25.4375 17.40625 -25.4375 C 14.363281 -25.4375 11.789062 -24.414062 9.6875 -22.375 C 7.59375 -20.332031 6.546875 -17.835938 6.546875 -14.890625 C 6.546875 -11.910156 7.601562 -9.398438 9.71875 -7.359375 C 11.832031 -5.316406 14.40625 -4.296875 17.4375 -4.296875 C 19.738281 -4.296875 22.023438 -4.976562 24.296875 -6.34375 Z M 24.296875 -14.640625 "/></g></g></g><g fill="#79d84b" fill-opacity="1"><g transform="translate(395.434583, 537.586697)"><g><path d="M 24.171875 -22.640625 L 24.171875 0 L 19.28125 0 L 19.28125 -4.421875 C 17.800781 -1.421875 15.101562 0.109375 11.1875 0.171875 C 8.601562 0.171875 6.570312 -0.609375 5.09375 -2.171875 C 3.625 -3.734375 2.890625 -5.859375 2.890625 -8.546875 L 2.890625 -22.640625 L 7.78125 -22.640625 L 7.78125 -9.90625 C 7.78125 -8.207031 8.25 -6.867188 9.1875 -5.890625 C 10.125 -4.910156 11.414062 -4.421875 13.0625 -4.421875 C 14.957031 -4.453125 16.46875 -5.125 17.59375 -6.4375 C 18.71875 -7.757812 19.28125 -9.441406 19.28125 -11.484375 L 19.28125 -22.640625 Z M 24.171875 -22.640625 "/></g></g></g><g fill="#79d84b" fill-opacity="1"><g transform="translate(423.212631, 537.586697)"><g><path d="M 17.1875 0 L 17.1875 -2.765625 C 15.570312 -0.773438 13.078125 0.21875 9.703125 0.21875 C 7.285156 0.21875 5.351562 -0.441406 3.90625 -1.765625 C 2.46875 -3.085938 1.75 -4.769531 1.75 -6.8125 C 1.75 -8.875 2.5 -10.515625 4 -11.734375 C 5.5 -12.960938 7.597656 -13.585938 10.296875 -13.609375 L 17.140625 -13.609375 L 17.140625 -14.296875 C 17.140625 -15.742188 16.675781 -16.863281 15.75 -17.65625 C 14.832031 -18.445312 13.5 -18.84375 11.75 -18.84375 C 9.5625 -18.84375 7.332031 -18.078125 5.0625 -16.546875 L 3.0625 -19.953125 C 4.789062 -20.972656 6.34375 -21.703125 7.71875 -22.140625 C 9.09375 -22.585938 10.789062 -22.8125 12.8125 -22.8125 C 15.695312 -22.8125 17.929688 -22.109375 19.515625 -20.703125 C 21.109375 -19.296875 21.921875 -17.34375 21.953125 -14.84375 L 22 0 Z M 10.71875 -3.65625 C 12.445312 -3.65625 13.914062 -4.054688 15.125 -4.859375 C 16.332031 -5.671875 17.003906 -6.703125 17.140625 -7.953125 L 17.140625 -10.046875 L 11.015625 -10.046875 C 9.398438 -10.046875 8.21875 -9.8125 7.46875 -9.34375 C 6.71875 -8.875 6.34375 -8.097656 6.34375 -7.015625 C 6.34375 -5.992188 6.726562 -5.175781 7.5 -4.5625 C 8.28125 -3.957031 9.351562 -3.65625 10.71875 -3.65625 Z M 10.71875 -3.65625 "/></g></g></g><g fill="#79d84b" fill-opacity="1"><g transform="translate(448.140563, 537.586697)"><g><path d="M 8.515625 -22.640625 L 8.515625 -18.125 C 10.066406 -21.25 12.675781 -22.8125 16.34375 -22.8125 L 16.34375 -18.125 C 14.101562 -18.238281 12.285156 -17.710938 10.890625 -16.546875 C 9.503906 -15.390625 8.710938 -13.816406 8.515625 -11.828125 L 8.515625 0 L 3.609375 0 L 3.609375 -22.640625 Z M 8.515625 -22.640625 "/></g></g></g><g fill="#79d84b" fill-opacity="1"><g transform="translate(464.900984, 537.586697)"><g><path d="M 25.1875 -31.5625 L 25.1875 0 L 20.296875 0 L 20.296875 -3.875 C 18.617188 -1.144531 15.96875 0.21875 12.34375 0.21875 C 9.101562 0.21875 6.484375 -0.851562 4.484375 -3 C 2.484375 -5.144531 1.484375 -7.945312 1.484375 -11.40625 C 1.484375 -14.8125 2.476562 -17.566406 4.46875 -19.671875 C 6.457031 -21.785156 9.050781 -22.84375 12.25 -22.84375 C 15.882812 -22.84375 18.566406 -21.46875 20.296875 -18.71875 L 20.296875 -31.5625 Z M 8.359375 -5.9375 C 9.648438 -4.5625 11.316406 -3.875 13.359375 -3.875 C 15.398438 -3.875 17.066406 -4.5625 18.359375 -5.9375 C 19.648438 -7.3125 20.296875 -9.078125 20.296875 -11.234375 C 20.296875 -13.421875 19.648438 -15.207031 18.359375 -16.59375 C 17.066406 -17.976562 15.398438 -18.671875 13.359375 -18.671875 C 11.316406 -18.671875 9.648438 -17.976562 8.359375 -16.59375 C 7.066406 -15.207031 6.40625 -13.421875 6.375 -11.234375 C 6.40625 -9.078125 7.066406 -7.3125 8.359375 -5.9375 Z M 8.359375 -5.9375 "/></g></g></g><g fill="#79d84b" fill-opacity="1"><g transform="translate(493.912671, 537.586697)"><g/></g></g><g fill="#79d84b" fill-opacity="1"><g transform="translate(504.88776, 537.586697)"><g><path d="M 3.921875 -29.78125 L 15.78125 -29.78125 C 19.53125 -29.78125 22.429688 -28.894531 24.484375 -27.125 C 26.546875 -25.351562 27.578125 -22.847656 27.578125 -19.609375 C 27.578125 -16.234375 26.546875 -13.617188 24.484375 -11.765625 C 22.429688 -9.910156 19.53125 -8.984375 15.78125 -8.984375 L 8.9375 -8.984375 L 8.9375 0 L 3.921875 0 Z M 8.9375 -25.265625 L 8.9375 -13.484375 L 15.578125 -13.484375 C 20.367188 -13.484375 22.765625 -15.484375 22.765625 -19.484375 C 22.765625 -23.335938 20.367188 -25.265625 15.578125 -25.265625 Z M 8.9375 -25.265625 "/></g></g></g><g fill="#79d84b" fill-opacity="1"><g transform="translate(533.516596, 537.586697)"><g><path d="M 22.8125 0 L 17.359375 -9.015625 C 17.078125 -8.992188 16.625 -8.984375 16 -8.984375 L 8.9375 -8.984375 L 8.9375 0 L 3.921875 0 L 3.921875 -29.78125 L 16 -29.78125 C 19.800781 -29.78125 22.75 -28.894531 24.84375 -27.125 C 26.945312 -25.351562 28 -22.847656 28 -19.609375 C 28 -17.234375 27.46875 -15.222656 26.40625 -13.578125 C 25.34375 -11.929688 23.816406 -10.722656 21.828125 -9.953125 L 28.5 0 Z M 8.9375 -13.484375 L 16 -13.484375 C 20.820312 -13.484375 23.234375 -15.484375 23.234375 -19.484375 C 23.234375 -23.335938 20.820312 -25.265625 16 -25.265625 L 8.9375 -25.265625 Z M 8.9375 -13.484375 "/></g></g></g><g fill="#79d84b" fill-opacity="1"><g transform="translate(564.272362, 537.586697)"><g><path d="M 6 -25.59375 C 9.03125 -28.46875 12.769531 -29.90625 17.21875 -29.90625 C 21.675781 -29.90625 25.421875 -28.46875 28.453125 -25.59375 C 31.492188 -22.71875 33.015625 -19.148438 33.015625 -14.890625 C 33.015625 -10.640625 31.492188 -7.054688 28.453125 -4.140625 C 25.421875 -1.234375 21.675781 0.21875 17.21875 0.21875 C 12.769531 0.21875 9.03125 -1.234375 6 -4.140625 C 2.96875 -7.054688 1.453125 -10.640625 1.453125 -14.890625 C 1.453125 -19.148438 2.96875 -22.71875 6 -25.59375 Z M 17.28125 -25.40625 C 14.320312 -25.40625 11.789062 -24.390625 9.6875 -22.359375 C 7.59375 -20.328125 6.546875 -17.835938 6.546875 -14.890625 C 6.546875 -11.941406 7.601562 -9.4375 9.71875 -7.375 C 11.832031 -5.320312 14.347656 -4.296875 17.265625 -4.296875 C 20.191406 -4.296875 22.691406 -5.320312 24.765625 -7.375 C 26.835938 -9.4375 27.875 -11.941406 27.875 -14.890625 C 27.875 -17.835938 26.835938 -20.328125 24.765625 -22.359375 C 22.691406 -24.390625 20.195312 -25.40625 17.28125 -25.40625 Z M 17.28125 -25.40625 "/></g></g></g></svg>